<mxfile host="app.diagrams.net" agent="Mozilla/5.0 (Windows NT 10.0; Win64; x64) AppleWebKit/537.36 (KHTML, like Gecko) Chrome/131.0.0.0 Safari/537.36 Edg/131.0.0.0" version="25.0.1">
  <diagram name="หน้า-1" id="Gp6wyBR0s-1a1TLwLxRN">
    <mxGraphModel dx="3029" dy="1358" grid="1" gridSize="10" guides="1" tooltips="1" connect="1" arrows="1" fold="1" page="1" pageScale="1" pageWidth="827" pageHeight="1169" math="0" shadow="0">
      <root>
        <mxCell id="0" />
        <mxCell id="1" parent="0" />
        <mxCell id="XmBFTufAw3-Jgd6syBJF-3" value="" style="edgeStyle=orthogonalEdgeStyle;rounded=0;orthogonalLoop=1;jettySize=auto;html=1;" edge="1" parent="1" source="XmBFTufAw3-Jgd6syBJF-1" target="XmBFTufAw3-Jgd6syBJF-2">
          <mxGeometry relative="1" as="geometry" />
        </mxCell>
        <mxCell id="XmBFTufAw3-Jgd6syBJF-1" value="Start" style="ellipse;whiteSpace=wrap;html=1;" vertex="1" parent="1">
          <mxGeometry x="354" y="70" width="120" height="80" as="geometry" />
        </mxCell>
        <mxCell id="XmBFTufAw3-Jgd6syBJF-6" value="" style="edgeStyle=orthogonalEdgeStyle;rounded=0;orthogonalLoop=1;jettySize=auto;html=1;" edge="1" parent="1" source="XmBFTufAw3-Jgd6syBJF-2" target="XmBFTufAw3-Jgd6syBJF-5">
          <mxGeometry relative="1" as="geometry" />
        </mxCell>
        <mxCell id="XmBFTufAw3-Jgd6syBJF-2" value="รับข้อมูลเลขUser&amp;nbsp;" style="shape=parallelogram;perimeter=parallelogramPerimeter;whiteSpace=wrap;html=1;fixedSize=1;" vertex="1" parent="1">
          <mxGeometry x="319" y="210" width="190" height="60" as="geometry" />
        </mxCell>
        <mxCell id="XmBFTufAw3-Jgd6syBJF-9" value="" style="edgeStyle=orthogonalEdgeStyle;rounded=0;orthogonalLoop=1;jettySize=auto;html=1;" edge="1" parent="1" source="XmBFTufAw3-Jgd6syBJF-4" target="XmBFTufAw3-Jgd6syBJF-8">
          <mxGeometry relative="1" as="geometry" />
        </mxCell>
        <mxCell id="XmBFTufAw3-Jgd6syBJF-4" value="รับข้อมูลเลขUser&amp;nbsp;" style="shape=parallelogram;perimeter=parallelogramPerimeter;whiteSpace=wrap;html=1;fixedSize=1;" vertex="1" parent="1">
          <mxGeometry x="319" y="370" width="190" height="60" as="geometry" />
        </mxCell>
        <mxCell id="XmBFTufAw3-Jgd6syBJF-7" value="" style="edgeStyle=orthogonalEdgeStyle;rounded=0;orthogonalLoop=1;jettySize=auto;html=1;" edge="1" parent="1" source="XmBFTufAw3-Jgd6syBJF-5" target="XmBFTufAw3-Jgd6syBJF-4">
          <mxGeometry relative="1" as="geometry" />
        </mxCell>
        <mxCell id="XmBFTufAw3-Jgd6syBJF-5" value="" style="ellipse;whiteSpace=wrap;html=1;aspect=fixed;" vertex="1" parent="1">
          <mxGeometry x="401.5" y="310" width="25" height="25" as="geometry" />
        </mxCell>
        <mxCell id="XmBFTufAw3-Jgd6syBJF-12" style="edgeStyle=orthogonalEdgeStyle;rounded=0;orthogonalLoop=1;jettySize=auto;html=1;entryX=0;entryY=0.5;entryDx=0;entryDy=0;" edge="1" parent="1" source="XmBFTufAw3-Jgd6syBJF-8" target="XmBFTufAw3-Jgd6syBJF-5">
          <mxGeometry relative="1" as="geometry">
            <Array as="points">
              <mxPoint x="280" y="550" />
              <mxPoint x="280" y="323" />
            </Array>
          </mxGeometry>
        </mxCell>
        <mxCell id="XmBFTufAw3-Jgd6syBJF-15" value="" style="edgeStyle=orthogonalEdgeStyle;rounded=0;orthogonalLoop=1;jettySize=auto;html=1;" edge="1" parent="1" source="XmBFTufAw3-Jgd6syBJF-8" target="XmBFTufAw3-Jgd6syBJF-13">
          <mxGeometry relative="1" as="geometry" />
        </mxCell>
        <mxCell id="XmBFTufAw3-Jgd6syBJF-8" value="ลูปถึงเลขที่กำหนดยัง" style="rhombus;whiteSpace=wrap;html=1;" vertex="1" parent="1">
          <mxGeometry x="332.75" y="500" width="162.5" height="100" as="geometry" />
        </mxCell>
        <mxCell id="XmBFTufAw3-Jgd6syBJF-10" value="Y" style="text;html=1;align=center;verticalAlign=middle;whiteSpace=wrap;rounded=0;" vertex="1" parent="1">
          <mxGeometry x="426.5" y="585" width="60" height="30" as="geometry" />
        </mxCell>
        <mxCell id="XmBFTufAw3-Jgd6syBJF-11" value="N" style="text;html=1;align=center;verticalAlign=middle;whiteSpace=wrap;rounded=0;" vertex="1" parent="1">
          <mxGeometry x="290" y="555" width="60" height="30" as="geometry" />
        </mxCell>
        <mxCell id="XmBFTufAw3-Jgd6syBJF-16" value="" style="edgeStyle=orthogonalEdgeStyle;rounded=0;orthogonalLoop=1;jettySize=auto;html=1;" edge="1" parent="1" source="XmBFTufAw3-Jgd6syBJF-13" target="XmBFTufAw3-Jgd6syBJF-14">
          <mxGeometry relative="1" as="geometry" />
        </mxCell>
        <mxCell id="XmBFTufAw3-Jgd6syBJF-13" value="แสดงเลขรวม&amp;nbsp;" style="shape=parallelogram;perimeter=parallelogramPerimeter;whiteSpace=wrap;html=1;fixedSize=1;" vertex="1" parent="1">
          <mxGeometry x="319" y="650" width="190" height="60" as="geometry" />
        </mxCell>
        <mxCell id="XmBFTufAw3-Jgd6syBJF-18" value="" style="edgeStyle=orthogonalEdgeStyle;rounded=0;orthogonalLoop=1;jettySize=auto;html=1;" edge="1" parent="1" source="XmBFTufAw3-Jgd6syBJF-14" target="XmBFTufAw3-Jgd6syBJF-17">
          <mxGeometry relative="1" as="geometry" />
        </mxCell>
        <mxCell id="XmBFTufAw3-Jgd6syBJF-14" value="แสดงค่าเฉลี่ย" style="shape=parallelogram;perimeter=parallelogramPerimeter;whiteSpace=wrap;html=1;fixedSize=1;" vertex="1" parent="1">
          <mxGeometry x="319" y="760" width="190" height="60" as="geometry" />
        </mxCell>
        <mxCell id="XmBFTufAw3-Jgd6syBJF-17" value="END" style="ellipse;whiteSpace=wrap;html=1;" vertex="1" parent="1">
          <mxGeometry x="354" y="880" width="120" height="80" as="geometry" />
        </mxCell>
      </root>
    </mxGraphModel>
  </diagram>
</mxfile>
